# xmcd
#
# Track frame offsets:
#	150
#	18753
#	41040
#	58030
#	76414
#	91495
#	108591
#	124494
#	141125
#	155262
#
# Disc length: 2299 seconds
#
# Revision: 0
# Processed by: cddbd v1.5.2PL0 Copyright (c) Steve Scherf et al.
# Submitted via: dBpowerAMP V4.0
#
DISCID=8108f90a
DTITLE=Mary Chapin Carpenter - Super Hits
DYEAR=2007
DGENRE=Country
TTITLE0=Downtown Train
TTITLE1=Just Because
TTITLE2=This Shirt
TTITLE3=Never Had It So Good
TTITLE4=Passionate Kisses
TTITLE5=The Bug
TTITLE6=Why Walk When You Can Fly
TTITLE7=Shut Up And Kiss Me
TTITLE8=A Road Is Just A Road
TTITLE9=Simple Life
EXTD=
EXTT0=
EXTT1=
EXTT2=
EXTT3=
EXTT4=
EXTT5=
EXTT6=
EXTT7=
EXTT8=
EXTT9=
PLAYORDER=
